<svg width="570" height="553" viewBox="0 0 570 553" fill="none" xmlns="http://www.w3.org/2000/svg">
<path d="M285 552.774C442.401 552.774 570 479.105 570 388.229C570 297.353 442.401 223.683 285 223.683C127.599 223.683 0 297.353 0 388.229C0 479.105 127.599 552.774 285 552.774Z" fill="#F0F0F0"/>
<path d="M448.675 445.323C429.986 434.533 429.986 417.042 448.675 406.252C467.364 395.462 497.665 395.462 516.353 406.252C535.042 417.042 535.042 434.533 516.353 445.323C497.665 456.113 467.364 456.113 448.675 445.323Z" fill="#E0E0E0"/>
<path d="M68.5616 446.823L19.4024 418.445C16.6323 416.849 16.6323 414.248 19.4024 412.651L305.346 247.561C306.9 246.774 308.618 246.364 310.36 246.364C312.102 246.364 313.82 246.774 315.374 247.561L364.545 275.939C367.315 277.536 367.315 280.137 364.545 281.733L78.6015 446.823C77.0453 447.611 75.3257 448.021 73.5815 448.021C71.8374 448.021 70.1178 447.611 68.5616 446.823Z" fill="#E0E0E0"/>
<path d="M245.263 396.236L287.528 371.802C291.882 369.286 294.06 365.996 294.06 362.694C294.06 359.391 294.06 356.815 294.06 356.815L250.223 332.09C248.998 331.298 247.979 330.228 247.247 328.966C246.515 327.705 246.093 326.288 246.013 324.832V272.709L172.226 315.361V367.459C172.311 368.914 172.736 370.329 173.467 371.589C174.199 372.85 175.215 373.921 176.436 374.717L213.741 396.2C222.426 401.268 236.554 401.269 245.263 396.236Z" fill="#FD7401"/>
<g opacity="0.6">
<path d="M245.263 396.236L287.528 371.802C291.882 369.286 294.06 365.996 294.06 362.694C294.06 359.391 294.06 356.815 294.06 356.815L250.223 332.09C248.998 331.298 247.979 330.228 247.247 328.966C246.515 327.705 246.093 326.288 246.013 324.832V272.709L172.226 315.361V367.459C172.311 368.914 172.736 370.329 173.467 371.589C174.199 372.85 175.215 373.921 176.436 374.717L213.741 396.2C222.426 401.268 236.554 401.269 245.263 396.236Z" fill="black"/>
</g>
<path opacity="0.3" d="M189.923 376.689V382.543L176.399 374.741C175.179 373.946 174.163 372.874 173.434 371.614C172.705 370.353 172.283 368.938 172.202 367.483V315.361L186.258 307.244C186.548 310.813 186.863 314.502 187.165 318.131L177.282 323.816V364.52C177.361 365.976 177.783 367.393 178.515 368.655C179.247 369.916 180.267 370.987 181.492 371.778L189.923 376.689Z" fill="black"/>
<path d="M177.282 364.532C177.366 365.987 177.79 367.403 178.521 368.663C179.252 369.924 180.27 370.995 181.492 371.79L213.692 390.346C222.402 395.366 236.53 395.378 245.251 390.346L287.588 365.911C296.31 360.879 296.31 352.726 287.588 347.694L255.364 329.139C254.145 328.342 253.13 327.27 252.401 326.009C251.672 324.749 251.249 323.335 251.166 321.881V281.165L177.379 323.816L177.282 364.532Z" fill="#FD7401"/>
<path opacity="0.3" d="M177.282 364.532C177.366 365.987 177.79 367.403 178.521 368.663C179.252 369.924 180.27 370.995 181.492 371.79L213.692 390.346C222.402 395.366 236.53 395.378 245.251 390.346L287.588 365.911C296.31 360.879 296.31 352.726 287.588 347.694L255.364 329.139C254.145 328.342 253.13 327.27 252.401 326.009C251.672 324.749 251.249 323.335 251.166 321.881V281.165L177.379 323.816L177.282 364.532Z" fill="black"/>
<path opacity="0.5" d="M263.892 334.11L255.315 329.163C254.097 328.366 253.082 327.294 252.353 326.034C251.624 324.773 251.201 323.359 251.118 321.905V281.165L177.331 323.816V364.532C177.414 365.987 177.838 367.403 178.57 368.663C179.301 369.924 180.319 370.995 181.54 371.79L190.008 376.628L263.892 334.11Z" fill="black"/>
<path d="M294.072 356.827V362.705C294.072 366.008 291.883 369.286 287.54 371.814L245.203 396.236C240.57 398.709 235.395 399.994 230.143 399.974V394.119C235.395 394.139 240.57 392.855 245.203 390.382L287.54 365.935C291.883 363.431 294.072 360.129 294.072 356.827Z" fill="#FD7401"/>
<path opacity="0.5" d="M294.072 356.827V362.705C294.072 366.008 291.883 369.286 287.54 371.814L245.203 396.236C240.57 398.709 235.395 399.994 230.143 399.974V394.119C235.395 394.139 240.57 392.855 245.203 390.382L287.54 365.935C291.883 363.431 294.072 360.129 294.072 356.827Z" fill="black"/>
<path d="M58.7393 415.131C60.3344 415.901 62.0882 416.286 63.8594 416.255C65.6306 416.223 67.3697 415.776 68.9364 414.949L354.408 250.138C355.939 249.139 357.213 247.794 358.127 246.212C359.041 244.63 359.57 242.854 359.67 241.029V10.0875C359.615 8.31223 359.142 6.57498 358.289 5.01734C357.435 3.4597 356.226 2.12574 354.759 1.12418C353.166 0.352869 351.413 -0.0315989 349.643 0.0020308C347.873 0.0356605 346.137 0.486438 344.574 1.31772L59.1021 166.178C57.5768 167.182 56.3105 168.533 55.4066 170.12C54.5026 171.708 53.9867 173.486 53.9008 175.31V406.216C53.9547 407.976 54.4205 409.7 55.2608 411.248C56.101 412.796 57.2924 414.126 58.7393 415.131Z" fill="#FD7401"/>
<path d="M68.9724 414.937L354.444 250.126C355.977 249.129 357.252 247.785 358.167 246.202C359.081 244.619 359.609 242.843 359.706 241.017V10.0874C359.706 6.73673 357.347 5.36985 354.444 7.05123L68.9724 171.863C67.441 172.86 66.1665 174.205 65.2523 175.788C64.338 177.37 63.8098 179.146 63.7105 180.971V411.901C63.7105 415.252 66.0693 416.619 68.9724 414.937Z" fill="#FD7401"/>
<path opacity="0.5" d="M68.9724 414.937L354.444 250.126C355.977 249.129 357.252 247.785 358.167 246.202C359.081 244.619 359.609 242.843 359.706 241.017V10.0874C359.706 6.73673 357.347 5.36985 354.444 7.05123L68.9724 171.863C67.441 172.86 66.1665 174.205 65.2523 175.788C64.338 177.37 63.8098 179.146 63.7105 180.971V411.901C63.7105 415.252 66.0693 416.619 68.9724 414.937Z" fill="black"/>
<path d="M68.1984 420.937C66.7014 421.59 65.0806 421.911 63.4475 421.878C61.8145 421.845 60.2081 421.458 58.7391 420.743C57.289 419.736 56.0957 418.403 55.2553 416.85C54.4148 415.297 53.9508 413.569 53.9006 411.804V390.781L63.7591 396.49V417.514C63.6986 420.574 65.6461 421.965 68.1984 420.937Z" fill="#FD7401"/>
<path opacity="0.5" d="M68.1984 420.937C66.7014 421.59 65.0806 421.911 63.4475 421.878C61.8145 421.845 60.2081 421.458 58.7391 420.743C57.289 419.736 56.0957 418.403 55.2553 416.85C54.4148 415.297 53.9508 413.569 53.9006 411.804V390.781L63.7591 396.49V417.514C63.6986 420.574 65.6461 421.965 68.1984 420.937Z" fill="black"/>
<path d="M63.6984 396.49V417.514C63.6984 420.864 66.1177 422.219 68.9603 420.55L354.432 255.738C355.956 254.745 357.227 253.407 358.14 251.834C359.054 250.26 359.586 248.495 359.694 246.678V225.558L63.6984 396.49Z" fill="#FD7401"/>
<path opacity="0.3" d="M63.7105 396.442V417.514C63.7105 420.864 66.1298 422.219 68.9724 420.55L354.444 255.738C355.966 254.743 357.234 253.405 358.146 251.832C359.057 250.259 359.588 248.494 359.694 246.678V225.558L63.7105 396.442Z" fill="black"/>
<path d="M73.5692 370.06V184.25C73.6256 183.155 73.9398 182.089 74.4863 181.139C75.0329 180.189 75.7963 179.381 76.7143 178.782L346.63 22.8975C348.372 21.8935 349.787 22.704 349.787 24.712V210.619C349.729 211.715 349.412 212.781 348.864 213.731C348.315 214.681 347.55 215.488 346.63 216.087L76.7264 371.935C74.9845 372.939 73.5692 372.117 73.5692 370.06Z" fill="#FD7401"/>
<path d="M73.5692 370.06V184.25C73.6256 183.155 73.9398 182.089 74.4863 181.139C75.0329 180.189 75.7963 179.381 76.7143 178.782L346.63 22.8975C348.372 21.8935 349.787 22.704 349.787 24.712V210.619C349.729 211.715 349.412 212.781 348.864 213.731C348.315 214.681 347.55 215.488 346.63 216.087L76.7264 371.935C74.9845 372.939 73.5692 372.117 73.5692 370.06Z" fill="#263238"/>
<path d="M211.696 317.72C210.259 318.654 209.064 319.915 208.206 321.399C207.348 322.883 206.853 324.548 206.761 326.26C206.761 329.405 208.975 330.687 211.696 329.114C213.135 328.179 214.332 326.916 215.189 325.43C216.047 323.944 216.541 322.276 216.632 320.562C216.632 317.417 214.418 316.147 211.696 317.72Z" fill="#FD7401"/>
<path opacity="0.7" d="M65.259 175.77C64.3216 177.346 63.7857 179.128 63.6986 180.959V396.49L53.9006 390.781V175.31C53.9641 173.473 54.4971 171.682 55.449 170.109L65.259 175.77Z" fill="black"/>
<path opacity="0.3" d="M359.646 9.21642C359.271 6.50686 357.081 5.58754 354.432 7.05119L68.9606 171.863C67.4128 172.831 66.1353 174.175 65.2471 175.77L55.3765 170.072C56.2707 168.478 57.5519 167.134 59.1022 166.165L344.574 1.36595C346.139 0.534552 347.878 0.0837528 349.649 0.050126C351.421 0.0164992 353.176 0.400992 354.771 1.17241C356.112 2.08611 357.241 3.27711 358.082 4.66487C358.923 6.05263 359.457 7.6048 359.646 9.21642Z" fill="black"/>
<path d="M375.044 37.6427C374.62 37.4299 374.146 37.3366 373.673 37.3729C373.2 37.4091 372.746 37.5735 372.359 37.8483L102.999 193.455C101.937 194.158 101.054 195.101 100.424 196.209C99.7933 197.316 99.4325 198.557 99.3706 199.829V384.503C99.3328 385.126 99.4566 385.749 99.73 386.311C100.003 386.872 100.417 387.354 100.931 387.708C101.524 388.035 104.693 389.874 105.636 390.382C105.97 390.552 106.343 390.63 106.717 390.609C107.091 390.588 107.453 390.468 107.765 390.261L377.064 234.654C378.127 233.951 379.01 233.008 379.64 231.9C380.27 230.793 380.631 229.553 380.693 228.28V42.6506C380.747 42.1815 380.67 41.7066 380.469 41.2793C380.268 40.8519 379.952 40.489 379.556 40.2313C378.951 39.8321 375.722 38.0419 375.044 37.6427Z" fill="#FD7401"/>
<path d="M107.705 196.068L377.077 40.5217C379.109 39.3121 380.706 40.304 380.706 42.6507V228.28C380.644 229.553 380.283 230.793 379.653 231.901C379.022 233.008 378.14 233.952 377.077 234.655L107.705 390.261C105.673 391.471 104.076 389.523 104.076 387.176V202.442C104.14 201.17 104.502 199.93 105.132 198.823C105.762 197.716 106.644 196.772 107.705 196.068Z" fill="#FAFAFA"/>
<path d="M378.722 41.2233C379.436 41.2233 379.545 42.1184 379.545 42.6507V228.28C379.479 229.346 379.167 230.382 378.631 231.306C378.096 232.229 377.352 233.016 376.46 233.602L107.125 389.208C106.944 389.326 106.735 389.393 106.52 389.402C105.842 389.402 105.31 388.362 105.31 387.176V202.442C105.369 201.377 105.672 200.339 106.196 199.41C106.721 198.48 107.452 197.684 108.334 197.084L377.682 41.562C377.993 41.3609 378.352 41.2442 378.722 41.2233ZM378.722 40.0137C378.139 40.0385 377.572 40.2135 377.077 40.5217L107.705 196.068C106.644 196.772 105.762 197.716 105.132 198.823C104.502 199.93 104.14 201.17 104.076 202.442V387.176C104.076 389.039 105.117 390.612 106.496 390.612C106.923 390.604 107.34 390.483 107.705 390.261L377.065 234.655C378.128 233.952 379.01 233.008 379.64 231.901C380.271 230.793 380.632 229.553 380.694 228.28V42.6507C380.694 40.9814 379.871 40.0137 378.662 40.0137H378.722Z" fill="#E0E0E0"/>
<path d="M100.859 387.708C101.258 387.914 104.125 389.547 105.383 390.273C104.931 389.898 104.573 389.423 104.338 388.885C104.103 388.348 103.997 387.762 104.028 387.176V214.502L99.3105 211.744V384.503C99.2715 385.125 99.3934 385.747 99.6646 386.309C99.9358 386.87 100.347 387.352 100.859 387.708Z" fill="#F0F0F0"/>
<path d="M380.754 42.6142C380.754 40.2918 379.097 39.3482 377.125 40.5216L107.705 196.067C106.644 196.772 105.762 197.716 105.132 198.823C104.502 199.93 104.14 201.17 104.076 202.442V214.538L380.754 54.7105V42.6142Z" fill="#FD7401"/>
<g opacity="0.4">
<path d="M377.077 40.5217L107.705 196.055C106.624 196.737 105.733 197.682 105.116 198.801L100.435 196.08C101.051 194.999 101.934 194.096 103 193.455L372.359 37.8484C372.745 37.5716 373.198 37.4051 373.672 37.3667C374.145 37.3283 374.619 37.4196 375.044 37.6306C375.698 38.0419 378.758 39.7717 379.544 40.1951C379.137 40.0442 378.7 39.9951 378.27 40.0521C377.84 40.109 377.43 40.2702 377.077 40.5217Z" fill="white"/>
</g>
<path opacity="0.15" d="M99.3107 211.756V199.769C99.3604 198.463 99.748 197.191 100.436 196.08L105.129 198.789C104.451 199.882 104.072 201.133 104.028 202.418V214.514L99.3107 211.756Z" fill="black"/>
<path d="M323.95 181.866L162.622 275.008C161.838 275.517 161.184 276.204 160.716 277.013C160.247 277.822 159.976 278.731 159.925 279.665V325.921C159.976 326.855 160.247 327.763 160.716 328.572C161.184 329.382 161.838 330.069 162.622 330.578L167.328 333.287C168.164 333.71 169.088 333.931 170.025 333.931C170.962 333.931 171.886 333.71 172.723 333.287L334.026 240.146C334.811 239.635 335.464 238.945 335.933 238.134C336.401 237.323 336.672 236.413 336.724 235.477V189.209C336.672 188.275 336.401 187.367 335.933 186.557C335.464 185.748 334.811 185.061 334.026 184.552L329.309 181.842C328.476 181.426 327.557 181.211 326.626 181.216C325.696 181.22 324.779 181.443 323.95 181.866Z" fill="#FD7401"/>
<path opacity="0.5" d="M336.724 188.798C336.53 187.406 335.405 186.898 334.051 187.685L172.723 280.826C171.927 281.32 171.273 282.012 170.824 282.834L160.723 277.003C161.176 276.194 161.825 275.512 162.61 275.02L323.95 181.878C324.784 181.455 325.706 181.234 326.642 181.234C327.577 181.234 328.499 181.455 329.333 181.878L334.051 184.588C334.77 185.059 335.38 185.679 335.841 186.404C336.302 187.13 336.603 187.946 336.724 188.798Z" fill="white"/>
<path d="M172.263 333.517C171.473 333.829 170.626 333.97 169.778 333.933C168.93 333.895 168.099 333.679 167.34 333.3L162.622 330.59C161.839 330.08 161.187 329.392 160.718 328.583C160.25 327.774 159.978 326.866 159.925 325.933V279.677C159.961 278.733 160.236 277.813 160.723 277.004L170.823 282.834C170.333 283.633 170.058 284.546 170.025 285.483V331.751C170.025 333.288 170.993 334.001 172.263 333.517Z" fill="#263238"/>
<path d="M172.723 280.826L334.05 187.685C335.538 186.826 336.748 187.515 336.748 189.233V235.501C336.697 236.437 336.426 237.347 335.957 238.158C335.488 238.969 334.835 239.659 334.05 240.17L172.747 333.312C171.259 334.17 170.049 333.469 170.049 331.751V285.495C170.098 284.562 170.365 283.653 170.829 282.842C171.294 282.031 171.942 281.34 172.723 280.826Z" fill="#FD7401"/>
<path d="M281.178 206.567L162.634 275.02C161.849 275.512 161.2 276.194 160.747 277.003L170.848 282.834C171.297 282.012 171.951 281.32 172.747 280.826L291.29 212.385L281.178 206.567Z" fill="#455A64"/>
<path d="M291.266 212.385L172.723 280.826C171.938 281.338 171.285 282.027 170.816 282.838C170.347 283.649 170.076 284.56 170.025 285.495V331.739C170.025 333.457 171.235 334.158 172.723 333.299L291.266 264.859V212.385Z" fill="#37474F"/>
<path d="M200.06 275.189L261.231 239.88C263.759 238.417 265.815 239.457 265.815 242.203C265.702 243.745 265.227 245.239 264.428 246.563C263.63 247.887 262.53 249.004 261.219 249.823L200.06 285.144C197.532 286.608 195.463 285.568 195.463 282.822C195.577 281.278 196.053 279.783 196.851 278.457C197.65 277.131 198.749 276.012 200.06 275.189Z" fill="#FD7401"/>
<path d="M212.592 286.886C212.603 286.873 212.617 286.863 212.633 286.856C212.648 286.849 212.665 286.845 212.683 286.845C212.7 286.845 212.717 286.849 212.732 286.856C212.748 286.863 212.762 286.873 212.773 286.886C212.827 286.968 212.853 287.066 212.846 287.164V294.047C212.847 294.712 212.79 295.376 212.677 296.031C212.577 296.63 212.406 297.214 212.168 297.773C211.952 298.284 211.667 298.765 211.322 299.2C210.981 299.604 210.572 299.944 210.112 300.204C209.752 300.439 209.332 300.565 208.902 300.567C208.738 300.554 208.579 300.508 208.433 300.431C208.287 300.354 208.159 300.248 208.056 300.119C207.79 299.764 207.616 299.348 207.548 298.91C207.432 298.324 207.379 297.728 207.39 297.132V290.237C207.39 290.116 207.415 289.997 207.463 289.886C207.493 289.786 207.557 289.7 207.644 289.644L208.407 289.197C208.431 289.174 208.464 289.161 208.497 289.161C208.531 289.161 208.563 289.174 208.588 289.197C208.644 289.278 208.67 289.376 208.661 289.475V296.273C208.651 296.647 208.688 297.021 208.769 297.386C208.803 297.619 208.904 297.838 209.06 298.015C209.114 298.08 209.183 298.131 209.261 298.164C209.338 298.198 209.423 298.213 209.507 298.208C209.714 298.195 209.914 298.128 210.088 298.015C210.303 297.886 210.499 297.727 210.669 297.543C210.857 297.325 211.012 297.081 211.128 296.817C211.265 296.507 211.366 296.182 211.431 295.849C211.501 295.45 211.534 295.045 211.527 294.64V287.83C211.531 287.708 211.56 287.589 211.612 287.479C211.642 287.379 211.706 287.293 211.793 287.237L212.592 286.886Z" fill="#FAFAFA"/>
<path d="M217.334 293.394C217.34 293.305 217.319 293.216 217.273 293.14C217.244 293.108 217.208 293.084 217.168 293.069C217.128 293.055 217.085 293.05 217.043 293.055C216.895 293.035 216.744 293.035 216.596 293.055L215.894 293.188C215.668 293.245 215.431 293.245 215.205 293.188C215.027 293.131 214.874 293.016 214.769 292.862C214.651 292.665 214.573 292.447 214.539 292.221C214.421 291.573 214.421 290.909 214.539 290.261C214.63 289.889 214.76 289.529 214.926 289.184C215.092 288.841 215.295 288.516 215.531 288.217C215.76 287.931 216.039 287.689 216.354 287.503C216.608 287.348 216.893 287.249 217.188 287.213C217.403 287.19 217.619 287.237 217.805 287.346C217.983 287.454 218.122 287.615 218.204 287.805C218.302 288.031 218.355 288.273 218.362 288.519C218.374 288.641 218.349 288.763 218.289 288.87C218.259 288.97 218.195 289.055 218.108 289.112L217.382 289.535C217.349 289.554 217.311 289.564 217.273 289.564C217.235 289.564 217.197 289.554 217.164 289.535L217.007 289.414C216.944 289.365 216.869 289.335 216.789 289.33C216.634 289.347 216.484 289.401 216.354 289.487C216.164 289.601 215.996 289.749 215.858 289.922C215.711 290.113 215.635 290.347 215.64 290.588C215.623 290.679 215.623 290.774 215.64 290.866C215.663 290.9 215.694 290.928 215.729 290.949C215.765 290.97 215.805 290.983 215.846 290.987C215.978 291.009 216.113 291.009 216.245 290.987L216.922 290.866C217.491 290.757 217.878 290.866 218.132 291.18C218.399 291.628 218.521 292.148 218.483 292.668C218.48 293.028 218.431 293.385 218.338 293.733C218.242 294.11 218.104 294.475 217.926 294.821C217.749 295.179 217.525 295.513 217.261 295.813C217.01 296.107 216.712 296.357 216.378 296.551C216.112 296.721 215.809 296.825 215.495 296.853C215.267 296.861 215.043 296.798 214.854 296.672C214.667 296.544 214.524 296.363 214.443 296.152C214.345 295.922 214.295 295.675 214.297 295.426C214.286 295.301 214.311 295.175 214.37 295.063C214.4 294.963 214.464 294.878 214.551 294.821L215.277 294.398C215.374 294.398 215.446 294.337 215.495 294.398L215.652 294.567C215.684 294.603 215.723 294.633 215.767 294.653C215.811 294.674 215.858 294.686 215.906 294.688C216.076 294.689 216.242 294.634 216.378 294.531C216.596 294.407 216.793 294.248 216.959 294.059C217.041 293.96 217.11 293.85 217.164 293.733C217.25 293.637 217.308 293.52 217.334 293.394Z" fill="#FAFAFA"/>
<path d="M219.801 290.116C219.799 289.488 219.852 288.86 219.958 288.241C220.059 287.658 220.217 287.087 220.43 286.535C220.608 286.041 220.852 285.573 221.156 285.144C221.41 284.776 221.74 284.466 222.124 284.237C222.404 284.049 222.746 283.975 223.079 284.031C223.375 284.1 223.634 284.277 223.805 284.527C224.033 284.856 224.193 285.226 224.277 285.616C224.393 286.124 224.45 286.643 224.446 287.164V287.914C224.45 288.041 224.421 288.166 224.362 288.277C224.332 288.377 224.268 288.463 224.18 288.519L221.035 290.346C221.028 290.559 221.056 290.771 221.12 290.975C221.167 291.112 221.25 291.233 221.362 291.326C221.461 291.404 221.586 291.443 221.712 291.434C221.859 291.417 221.999 291.368 222.124 291.289C222.307 291.19 222.471 291.059 222.608 290.902C222.731 290.763 222.837 290.608 222.922 290.442C222.974 290.347 223.03 290.254 223.091 290.164C223.143 290.103 223.205 290.05 223.273 290.007L224.023 289.572C224.049 289.551 224.081 289.54 224.114 289.54C224.147 289.54 224.179 289.551 224.204 289.572C224.236 289.61 224.259 289.655 224.272 289.703C224.284 289.751 224.286 289.801 224.277 289.85C224.264 290.086 224.215 290.318 224.132 290.539C224.027 290.875 223.89 291.199 223.72 291.507C223.531 291.861 223.304 292.194 223.043 292.499C222.783 292.811 222.472 293.076 222.124 293.285C221.838 293.472 221.496 293.554 221.156 293.515C220.859 293.443 220.599 293.262 220.43 293.007C220.192 292.64 220.032 292.228 219.958 291.797C219.849 291.244 219.796 290.68 219.801 290.116ZM222.124 286.257C221.938 286.357 221.777 286.498 221.652 286.668C221.518 286.838 221.408 287.025 221.325 287.225C221.241 287.425 221.172 287.631 221.12 287.842C221.077 288.033 221.049 288.227 221.035 288.422L223.164 287.213C223.152 287.046 223.127 286.88 223.091 286.717C223.073 286.571 223.014 286.433 222.922 286.318C222.886 286.265 222.839 286.221 222.785 286.188C222.731 286.155 222.671 286.133 222.608 286.124C222.436 286.11 222.264 286.157 222.124 286.257Z" fill="#FAFAFA"/>
<path d="M228.245 282.882C227.878 283.092 227.589 283.414 227.422 283.802C227.234 284.312 227.148 284.855 227.168 285.398V289.765C227.17 289.89 227.145 290.014 227.096 290.128C227.066 290.228 227.002 290.314 226.914 290.37L226.2 290.781C226.189 290.794 226.175 290.804 226.159 290.811C226.144 290.819 226.127 290.822 226.11 290.822C226.093 290.822 226.076 290.819 226.06 290.811C226.044 290.804 226.03 290.794 226.019 290.781C225.965 290.699 225.939 290.601 225.946 290.503V282.677C225.947 282.552 225.972 282.429 226.019 282.314C226.053 282.216 226.116 282.132 226.2 282.072L226.914 281.661C226.939 281.638 226.971 281.625 227.005 281.625C227.038 281.625 227.071 281.638 227.096 281.661C227.152 281.737 227.177 281.832 227.168 281.927V282.314C227.312 281.989 227.491 281.681 227.7 281.395C227.892 281.13 228.14 280.911 228.426 280.753L228.862 280.499C228.884 280.477 228.915 280.465 228.946 280.465C228.978 280.465 229.008 280.477 229.031 280.499C229.089 280.58 229.119 280.678 229.116 280.778V281.878C229.114 282.004 229.085 282.128 229.031 282.241C229 282.337 228.941 282.422 228.862 282.483L228.245 282.882Z" fill="#FAFAFA"/>
<path d="M237.268 282.302C237.279 282.289 237.293 282.279 237.309 282.271C237.325 282.264 237.342 282.261 237.359 282.261C237.376 282.261 237.393 282.264 237.409 282.271C237.424 282.279 237.438 282.289 237.45 282.302C237.504 282.384 237.529 282.482 237.522 282.58V283.79C237.522 283.914 237.497 284.037 237.45 284.152C237.408 284.242 237.346 284.321 237.268 284.382L233.131 286.802C233.107 286.824 233.074 286.837 233.04 286.837C233.007 286.837 232.974 286.824 232.95 286.802C232.896 286.724 232.87 286.63 232.877 286.535V275.649C232.878 275.524 232.902 275.401 232.95 275.286C232.984 275.192 233.047 275.111 233.131 275.056L233.893 274.608C233.918 274.586 233.95 274.573 233.984 274.573C234.018 274.573 234.05 274.586 234.075 274.608C234.129 274.686 234.154 274.78 234.147 274.875V284.08L237.268 282.302Z" fill="#FAFAFA"/>
<path d="M240.982 273.35C241.254 273.162 241.583 273.072 241.913 273.096C242.196 273.119 242.46 273.249 242.651 273.459C242.876 273.718 243.042 274.024 243.135 274.354C243.264 274.783 243.337 275.226 243.353 275.673C243.353 275.77 243.353 275.903 243.353 276.06V276.991C243.353 277.137 243.353 277.27 243.353 277.378C243.329 277.904 243.256 278.427 243.135 278.939C243.023 279.438 242.861 279.924 242.651 280.39C242.459 280.824 242.211 281.231 241.913 281.6C241.658 281.934 241.342 282.218 240.982 282.435C240.702 282.617 240.372 282.706 240.038 282.689C239.759 282.665 239.499 282.535 239.312 282.326C239.08 282.076 238.914 281.773 238.829 281.443C238.699 281.015 238.626 280.571 238.611 280.124C238.611 280.028 238.611 279.907 238.611 279.749V278.818C238.611 278.661 238.611 278.528 238.611 278.431C238.625 277.901 238.694 277.374 238.817 276.858C238.934 276.356 239.1 275.865 239.312 275.395C239.505 274.964 239.748 274.557 240.038 274.185C240.295 273.847 240.615 273.564 240.982 273.35ZM242.119 276.471C242.118 276.204 242.073 275.938 241.986 275.685C241.941 275.531 241.847 275.395 241.72 275.298C241.617 275.229 241.492 275.199 241.369 275.213C241.231 275.239 241.099 275.293 240.982 275.37C240.84 275.448 240.709 275.546 240.595 275.661C240.456 275.805 240.338 275.968 240.244 276.145C240.122 276.365 240.033 276.601 239.978 276.846C239.898 277.155 239.85 277.471 239.833 277.79C239.833 277.886 239.833 277.995 239.833 278.128V278.987C239.833 279.12 239.833 279.229 239.833 279.302C239.844 279.569 239.893 279.834 239.978 280.088C240.022 280.243 240.115 280.379 240.244 280.475C240.294 280.511 240.351 280.536 240.412 280.548C240.472 280.56 240.534 280.56 240.595 280.548C240.732 280.524 240.863 280.475 240.982 280.403C241.122 280.322 241.252 280.224 241.369 280.112C241.504 279.965 241.621 279.802 241.72 279.628C241.836 279.406 241.925 279.17 241.986 278.927C242.065 278.618 242.109 278.302 242.119 277.983C242.126 277.87 242.126 277.757 242.119 277.645V276.798C242.126 276.689 242.126 276.58 242.119 276.471Z" fill="#FAFAFA"/>
<path d="M247.054 280.427C247.209 280.332 247.347 280.214 247.465 280.076C247.611 279.905 247.737 279.719 247.84 279.52C247.96 279.276 248.054 279.021 248.118 278.758C248.193 278.461 248.229 278.156 248.227 277.85V277.233C248.227 277.354 248.106 277.5 248.022 277.669C247.939 277.846 247.842 278.016 247.731 278.177C247.605 278.347 247.468 278.509 247.32 278.661C247.168 278.82 246.993 278.955 246.8 279.06C246.676 279.145 246.535 279.204 246.388 279.233C246.24 279.262 246.088 279.261 245.941 279.229C245.672 279.145 245.441 278.97 245.288 278.733C245.091 278.421 244.948 278.077 244.864 277.717C244.761 277.26 244.705 276.794 244.695 276.326C244.695 276.169 244.695 275.975 244.695 275.746C244.695 275.516 244.695 275.322 244.695 275.153C244.71 274.621 244.767 274.091 244.864 273.568C244.964 273.053 245.105 272.548 245.288 272.056C245.459 271.63 245.678 271.224 245.941 270.847C246.164 270.513 246.457 270.233 246.8 270.024C246.961 269.927 247.137 269.858 247.32 269.818C247.456 269.793 247.595 269.793 247.731 269.818C247.839 269.849 247.938 269.902 248.022 269.976C248.099 270.035 248.168 270.104 248.227 270.181V269.794C248.228 269.67 248.253 269.547 248.3 269.431C248.334 269.337 248.397 269.256 248.481 269.202L249.195 268.778C249.22 268.755 249.252 268.742 249.286 268.742C249.319 268.742 249.352 268.755 249.376 268.778C249.435 268.859 249.465 268.957 249.461 269.056V276.919C249.494 278.097 249.275 279.268 248.82 280.354C248.463 281.209 247.845 281.929 247.054 282.411C246.784 282.578 246.476 282.674 246.159 282.689C245.908 282.704 245.658 282.641 245.445 282.507C245.241 282.354 245.075 282.156 244.961 281.927C244.843 281.651 244.778 281.356 244.768 281.056C244.756 280.93 244.782 280.804 244.84 280.693C244.87 280.593 244.934 280.507 245.022 280.451L245.663 280.088C245.678 280.072 245.695 280.06 245.715 280.051C245.735 280.043 245.756 280.038 245.778 280.038C245.799 280.038 245.821 280.043 245.84 280.051C245.86 280.06 245.878 280.072 245.893 280.088C245.952 280.151 246.005 280.22 246.05 280.294C246.124 280.424 246.245 280.519 246.389 280.56C246.534 280.669 246.752 280.548 247.054 280.427ZM245.917 274.56C245.917 274.883 245.917 275.197 245.917 275.504C245.882 275.987 246.019 276.467 246.304 276.858C246.412 276.951 246.549 277.002 246.691 277.002C246.833 277.002 246.97 276.951 247.078 276.858C247.429 276.63 247.703 276.301 247.864 275.915C248.085 275.41 248.208 274.869 248.227 274.318C248.227 274.137 248.227 273.919 248.227 273.665C248.227 273.411 248.227 273.193 248.227 273.036C248.252 272.603 248.123 272.175 247.864 271.826C247.757 271.728 247.617 271.673 247.471 271.673C247.326 271.673 247.185 271.728 247.078 271.826C246.734 272.054 246.465 272.378 246.304 272.758C246.055 273.327 245.924 273.94 245.917 274.56Z" fill="#FAFAFA"/>
<path d="M252.28 263.819C252.304 263.799 252.334 263.788 252.365 263.788C252.395 263.788 252.425 263.799 252.449 263.819C252.512 263.897 252.543 263.996 252.534 264.097V265.415C252.535 265.541 252.506 265.666 252.449 265.778C252.415 265.869 252.357 265.949 252.28 266.008L251.469 266.48C251.458 266.493 251.444 266.503 251.428 266.51C251.413 266.517 251.396 266.521 251.379 266.521C251.362 266.521 251.345 266.517 251.329 266.51C251.313 266.503 251.299 266.493 251.288 266.48C251.256 266.443 251.233 266.401 251.218 266.355C251.203 266.31 251.198 266.261 251.203 266.214V264.895C251.202 264.769 251.231 264.645 251.288 264.532C251.322 264.438 251.385 264.357 251.469 264.302L252.28 263.819ZM252.485 275.177C252.486 275.298 252.461 275.417 252.413 275.528C252.374 275.623 252.312 275.706 252.231 275.77L251.506 276.181C251.495 276.194 251.483 276.204 251.468 276.211C251.453 276.218 251.437 276.221 251.421 276.221C251.405 276.221 251.389 276.218 251.374 276.211C251.359 276.204 251.347 276.194 251.336 276.181C251.273 276.103 251.243 276.003 251.252 275.903V268.076C251.251 267.95 251.28 267.826 251.336 267.714C251.37 267.619 251.429 267.536 251.506 267.472L252.231 267.06C252.256 267.037 252.288 267.025 252.322 267.025C252.356 267.025 252.388 267.037 252.413 267.06C252.467 267.138 252.493 267.232 252.485 267.326V275.177Z" fill="#FAFAFA"/>
<path d="M258.848 271.488C258.847 271.612 258.823 271.735 258.776 271.851C258.742 271.945 258.678 272.026 258.594 272.08L257.868 272.504C257.846 272.526 257.815 272.538 257.784 272.538C257.752 272.538 257.722 272.526 257.699 272.504C257.636 272.426 257.605 272.326 257.614 272.226V267.968C257.651 267.465 257.56 266.961 257.348 266.504C257.179 266.202 256.913 266.153 256.538 266.371C256.164 266.622 255.886 266.993 255.751 267.423C255.55 267.994 255.451 268.596 255.461 269.201V273.471C255.461 273.596 255.436 273.719 255.389 273.834C255.359 273.934 255.295 274.02 255.207 274.076L254.493 274.488C254.482 274.5 254.468 274.511 254.452 274.518C254.437 274.525 254.42 274.528 254.403 274.528C254.386 274.528 254.369 274.525 254.353 274.518C254.337 274.511 254.323 274.5 254.312 274.488C254.256 274.411 254.23 274.316 254.239 274.221V266.395C254.238 266.27 254.262 266.147 254.312 266.032C254.342 265.933 254.406 265.847 254.493 265.79L255.207 265.379C255.218 265.366 255.232 265.356 255.248 265.349C255.264 265.342 255.281 265.338 255.298 265.338C255.315 265.338 255.332 265.342 255.348 265.349C255.363 265.356 255.377 265.366 255.389 265.379C255.443 265.461 255.468 265.559 255.461 265.657V266.032C255.62 265.664 255.815 265.311 256.042 264.98C256.241 264.674 256.511 264.421 256.828 264.242C257.103 264.041 257.446 263.954 257.784 264C257.917 264.034 258.043 264.095 258.151 264.181C258.26 264.266 258.349 264.374 258.413 264.496C258.588 264.823 258.703 265.18 258.751 265.548C258.816 266.03 258.848 266.514 258.848 267V271.488Z" fill="#FAFAFA"/>
<path d="M319.861 236.275L308.116 243.049L309.942 226.574C308.527 225.824 307.632 223.998 307.632 221.373C307.632 216.691 310.487 211.26 313.995 209.276C317.502 207.293 320.345 209.397 320.345 214.115C320.272 216.891 319.481 219.6 318.047 221.978L319.861 236.275Z" fill="#455A64"/>
<path d="M319.873 236.275L309.531 230.312L308.116 243.061L319.873 236.275Z" fill="#37474F"/>
<path d="M313.971 209.24C311.413 210.968 309.506 213.502 308.552 216.438L318.023 221.905C319.457 219.527 320.249 216.818 320.322 214.042C320.346 209.361 317.503 207.22 313.971 209.24Z" fill="#37474F"/>
<path d="M256.876 154.384C252.848 152.061 247.296 152.388 241.151 155.932C228.885 163.02 218.942 180.233 218.942 194.398C218.942 201.511 221.458 206.494 225.498 208.793L233.325 213.341C237.341 215.663 242.893 215.325 249.05 211.78C261.315 204.704 271.259 187.479 271.259 173.314C271.259 166.238 268.767 161.218 264.751 158.956" fill="#FD7401"/>
<path d="M249.038 160.492C236.772 167.581 226.829 184.806 226.829 198.959C226.829 213.111 236.772 218.869 249.038 211.781C261.304 204.692 271.259 187.479 271.247 173.314C271.235 159.15 261.291 153.416 249.038 160.492Z" fill="#FD7401"/>
<path d="M261.291 191.918V193.539C258.353 198.784 254.138 203.203 249.038 206.386C244.26 209.131 239.941 209.434 236.772 207.68V204.341C236.934 200.868 237.926 197.484 239.665 194.472C241.403 191.461 243.837 188.909 246.764 187.032L249.994 185.169C252.848 183.524 255.63 183.306 257.808 184.576C259.985 185.846 261.291 188.519 261.291 191.918Z" fill="#FD7401"/>
<path opacity="0.4" d="M256.876 154.384L264.739 158.956C260.723 156.622 255.171 156.948 249.014 160.493C240.982 165.137 233.942 174.125 230.047 183.754L222.172 179.193C226.079 169.516 233.059 160.577 241.139 155.932C247.308 152.4 252.86 152.061 256.876 154.384Z" fill="white"/>
<path opacity="0.2" d="M233.047 213.159L225.511 208.793C221.47 206.494 218.954 201.535 218.954 194.398L226.829 198.971C226.877 205.865 229.2 210.777 233.047 213.159Z" fill="black"/>
<path opacity="0.1" d="M222.196 179.193L230.071 183.753C228.053 188.574 226.969 193.734 226.877 198.958L219.003 194.386C219.1 189.166 220.183 184.011 222.196 179.193Z" fill="black"/>
<path d="M246.231 184.407C245.481 184.415 244.742 184.223 244.09 183.85C243.305 183.327 242.676 182.601 242.269 181.749C241.862 180.897 241.693 179.951 241.78 179.012C241.883 176.808 242.512 174.661 243.614 172.75C244.717 170.839 246.262 169.22 248.118 168.028C248.864 167.433 249.773 167.076 250.724 167.005C251.676 166.934 252.627 167.152 253.453 167.631C254.279 168.109 254.941 168.825 255.354 169.686C255.766 170.547 255.908 171.512 255.763 172.455C255.659 174.659 255.029 176.805 253.926 178.716C252.824 180.626 251.28 182.246 249.425 183.439C248.465 184.038 247.363 184.372 246.231 184.407Z" fill="white"/>
<path d="M257.808 184.564C255.63 183.294 252.848 183.512 249.994 185.157L246.764 187.02C243.836 188.899 241.4 191.452 239.662 194.466C237.923 197.479 236.933 200.866 236.772 204.341V207.692C239.941 209.446 244.26 209.144 249.038 206.398C254.138 203.215 258.353 198.797 261.291 193.552V191.931C261.291 188.52 260.033 185.846 257.808 184.564Z" fill="white"/>
<path d="M506.483 393.829C506.483 393.829 508.091 379.701 515.119 368.73C522.147 357.758 531.8 350.924 540.812 350.21C549.824 349.496 557.105 357.794 547.465 363.516C537.824 369.238 520.696 375.02 512.809 396.309L506.483 393.829Z" fill="#FD7401"/>
<path opacity="0.1" d="M506.483 393.829C506.483 393.829 508.091 379.701 515.119 368.73C522.147 357.758 531.8 350.924 540.812 350.21C549.824 349.496 557.105 357.794 547.465 363.516C537.824 369.238 520.696 375.02 512.809 396.309L506.483 393.829Z" fill="black"/>
<path d="M509.132 390.152H509.035C508.916 390.104 508.822 390.01 508.772 389.892C508.722 389.775 508.721 389.642 508.769 389.523C518.276 366.117 536.372 356.331 544.622 354.444C544.684 354.43 544.748 354.428 544.811 354.438C544.874 354.449 544.934 354.471 544.988 354.505C545.042 354.539 545.088 354.583 545.125 354.634C545.162 354.686 545.188 354.745 545.203 354.807C545.217 354.869 545.219 354.933 545.209 354.996C545.198 355.058 545.175 355.118 545.142 355.172C545.108 355.226 545.064 355.273 545.012 355.31C544.96 355.347 544.902 355.373 544.84 355.387C536.76 357.25 519.014 366.855 509.664 389.898C509.617 389.994 509.539 390.072 509.442 390.118C509.346 390.165 509.236 390.176 509.132 390.152Z" fill="white"/>
<path d="M557.251 390.43C556.44 392.269 554.432 393.236 552.569 393.986C550.707 394.736 548.674 395.547 547.658 397.289C545.626 400.797 548.965 405.756 546.787 409.155C546.275 409.839 545.629 410.413 544.889 410.841C544.149 411.269 543.33 411.544 542.481 411.647C541.09 411.901 539.675 411.901 538.272 412.022C537.6 412.013 536.929 411.961 536.264 411.865C534.309 411.428 532.265 411.645 530.445 412.482C527.651 414.054 526.817 417.574 525.099 420.296C524.049 421.898 522.666 423.255 521.044 424.274C519.422 425.293 517.599 425.949 515.7 426.199C514.49 426.356 512.071 426.586 510.862 425.872C510.767 425.826 510.678 425.769 510.595 425.703C510.414 425.509 510.196 425.255 510.1 425.122C510.093 425.094 510.093 425.065 510.1 425.037C509.604 423.211 510.414 421.324 510.45 419.437V419.098C510.366 416.909 510.305 414.731 510.257 412.554C510.152 408.522 510.112 404.49 510.136 400.458C510.136 397.845 509.845 394.99 510.958 392.535C512.168 389.825 515.216 389.765 516.365 387.116C516.825 386.051 517.067 384.926 517.514 383.85C518.206 382.285 519.314 380.939 520.717 379.96C522.121 378.981 523.766 378.406 525.474 378.298C530.784 378.031 535.538 382.326 540.848 381.926C542.215 381.818 543.558 381.394 544.913 381.152C549.207 380.342 554.178 381.564 556.597 385.204C557.128 385.954 557.466 386.824 557.58 387.735C557.694 388.647 557.581 389.573 557.251 390.43Z" fill="#FD7401"/>
<path d="M509.567 416.655C509.453 416.621 509.356 416.544 509.297 416.44C509.238 416.336 509.222 416.214 509.252 416.098C516.583 388.592 545.541 384.648 552.351 385.108C552.411 385.111 552.47 385.126 552.524 385.152C552.578 385.178 552.626 385.215 552.666 385.26C552.705 385.305 552.735 385.358 552.754 385.415C552.773 385.472 552.78 385.532 552.775 385.592C552.763 385.709 552.705 385.818 552.615 385.894C552.525 385.971 552.409 386.01 552.291 386.003C545.65 385.531 517.296 389.414 510.123 416.34C510.09 416.455 510.013 416.552 509.909 416.61C509.805 416.669 509.682 416.685 509.567 416.655Z" fill="white"/>
<path d="M541.78 402.72C541.688 402.707 541.603 402.665 541.538 402.599C538.86 400.279 535.704 398.578 532.294 397.618C528.883 396.659 525.303 396.464 521.809 397.047C521.691 397.058 521.573 397.024 521.479 396.952C521.385 396.881 521.321 396.776 521.301 396.66C521.283 396.541 521.312 396.421 521.382 396.324C521.453 396.226 521.558 396.161 521.676 396.14C525.32 395.533 529.054 395.74 532.609 396.746C536.164 397.752 539.453 399.532 542.239 401.958C542.282 402 542.316 402.05 542.339 402.105C542.363 402.16 542.374 402.219 542.374 402.279C542.374 402.338 542.363 402.398 542.339 402.453C542.316 402.508 542.282 402.557 542.239 402.599C542.185 402.664 542.111 402.711 542.029 402.733C541.946 402.754 541.859 402.75 541.78 402.72Z" fill="white"/>
<path d="M439.917 61.6054L443.764 63.0812V54.6138C443.764 47.8883 449.122 46.2795 454.941 49.6422C460.771 53.005 465.489 61.17 465.489 67.8955V69.1051C466.299 68.8574 467.156 68.7961 467.994 68.926C468.832 69.0559 469.629 69.3735 470.327 69.8551C472.536 71.2957 474.375 73.2372 475.693 75.5219C477.01 77.8066 477.771 80.37 477.911 83.0037V83.5602L483.282 86.6568C484.735 87.6053 485.944 88.8824 486.812 90.3849C487.68 91.8874 488.182 93.5731 488.278 95.3056C488.278 98.499 486.04 99.7933 483.282 98.1966L439.917 73.1453C438.463 72.199 437.253 70.9222 436.387 69.419C435.521 67.9158 435.023 66.229 434.933 64.4965C434.933 61.3151 437.147 60.0208 439.917 61.6054Z" fill="#E6E6E6"/>
<path d="M491.435 54.904L498.414 58.9321C498.376 58.6271 498.356 58.3201 498.354 58.0128V55.9927C498.354 52.3638 500.87 50.9364 503.991 52.7388C505.332 53.5599 506.479 54.6617 507.353 55.9685C507.861 51.4445 511.418 49.7631 515.724 52.2428C518.185 53.844 520.234 56.0025 521.705 58.5433C523.176 61.0841 524.028 63.9358 524.191 66.8672V69.8913C524.223 71.0996 523.978 72.2991 523.478 73.3992L529.284 76.7378C530.189 77.3379 530.94 78.1419 531.478 79.0851C532.016 80.0284 532.325 81.0846 532.381 82.169C532.381 84.1649 530.977 84.9753 529.248 83.9834L491.435 62.2102C490.52 61.6143 489.76 60.8105 489.215 59.8645C488.671 58.9184 488.358 57.857 488.302 56.7668C488.302 54.7226 489.705 53.9121 491.435 54.904Z" fill="#E6E6E6"/>
<path d="M464.411 238.489C459.331 247.077 454.444 254.541 451.009 258.121C444.489 261.145 429.175 265.814 423.187 266.589C422.135 266.723 421.071 266.473 420.187 265.887C417.829 264.339 416.002 264.085 413.522 263.226C411.575 262.561 410.752 261.629 410.389 262.016C410.014 262.456 409.826 263.024 409.865 263.6C409.903 264.177 410.165 264.715 410.595 265.101C411.525 265.985 412.557 266.756 413.667 267.399C411.012 268.058 408.241 268.108 405.563 267.544C400.374 266.177 397.93 268.669 401.438 274.306C402.648 276.314 407.631 279.544 417.647 278.673C421.22 278.48 424.779 278.076 428.304 277.463C437.908 275.407 448.589 273.423 455.158 271.415C457.601 270.454 459.788 268.939 461.544 266.988C472.588 254.396 476.254 245.42 481.092 237.267L480.681 223.961C472.842 223.695 468.657 231.304 464.411 238.489Z" fill="#FFA8A7"/>
<path d="M482.024 223.695C479.751 223.376 477.434 223.684 475.323 224.585C473.213 225.487 471.389 226.949 470.048 228.812C464.678 235.695 455.17 252.218 455.17 252.218C455.17 252.218 458.279 260.504 466.673 261.895L480.161 243.678C480.161 243.678 486.548 231.026 482.024 223.695Z" fill="#455A64"/>
<path d="M511.188 409.421H502.394V425.098H511.188V409.421Z" fill="#FFA8A7"/>
<path d="M480.705 408.587L471.924 408.901L471.476 392.305L480.705 391.99V408.587Z" fill="#FFA8A7"/>
<path d="M512.421 273.713C512.421 282.447 511.139 352.811 511.139 352.811C511.333 355.327 513.559 359.972 513.111 369.637C512.446 382.761 511.563 417.26 511.563 417.26C510.053 418.032 508.387 418.451 506.692 418.484C504.997 418.518 503.316 418.165 501.777 417.453C501.777 417.453 494.64 369.068 493.067 356.113C491.688 344.755 488.156 307.159 488.156 307.159L483.403 351.601C484.41 356.369 484.776 361.251 484.491 366.117C484.08 372.165 481.249 403.47 481.249 403.47C479.73 404.366 478.027 404.905 476.268 405.045C474.51 405.186 472.743 404.924 471.101 404.28C471.101 404.28 466.093 357.105 465.996 351.565C465.875 345.275 468.923 273.641 468.923 273.641L512.421 273.713Z" fill="#37474F"/>
<path d="M502.394 420.574V419.267C501.547 419.642 499.599 427.408 496.104 430.723C493.334 433.36 489.559 436.396 488.592 439.335C487.624 442.275 493.854 444.077 496.454 443.605C499.454 443.049 504.68 440.835 505.986 438.767C507.293 436.698 507.91 433.698 508.974 432.198C510.038 430.698 512.494 429.029 513.063 427.287C513.24 425.658 513.071 424.009 512.567 422.449C512.155 420.828 511.72 419.05 511.188 419.207V420.199C509.948 421.217 508.389 421.765 506.785 421.747C505.502 421.856 502.382 421.59 502.394 420.574Z" fill="#263238"/>
<path d="M471.826 406.071C471.367 406.071 470.992 406.76 469.988 407.897C468.495 409.468 466.749 410.776 464.823 411.768C461.532 413.486 455.146 416.123 452.23 417.49C450.416 418.336 450.501 420.61 452.376 421.905C454.251 423.199 458.762 424.13 464.182 422.872C467.133 422.183 470.98 419.34 473.423 419.498C475.867 419.655 480.403 419.606 482.205 418.288C484.007 416.969 483.282 414.236 482.773 411.877C482.217 409.288 481.564 405.26 480.705 405.442V406.349C479.653 408.018 474.197 408.696 471.875 407.474L471.826 406.071Z" fill="#263238"/>
<path d="M488.156 307.16C483.582 305.662 479.4 303.162 475.915 299.841C475.915 299.841 478.334 304.45 485.302 308.744L483.802 348.432L488.156 307.16Z" fill="#263238"/>
<path d="M507.511 224.978C507.511 224.978 514.769 226.647 514.248 239.759L512.736 260.625V291.955C506.277 299.285 477.657 298.753 467.799 291.374C467.799 291.374 468.912 254.299 469.577 240.025C470.049 229.889 472.383 224.784 482.351 223.671L494.604 224.203L507.511 224.978Z" fill="#FD7401"/>
<path d="M498.269 197.737C498.311 199.492 498.005 201.239 497.368 202.875C496.732 204.512 495.778 206.006 494.561 207.272C493.344 208.538 491.889 209.551 490.279 210.252C488.669 210.953 486.937 211.329 485.181 211.357C477.923 211.357 473.665 205.091 472.093 197.737C469.19 184.274 477.947 184.104 485.181 184.104C488.724 184.177 492.093 185.654 494.547 188.211C497.002 190.767 498.34 194.194 498.269 197.737Z" fill="#263238"/>
<path d="M504.946 203.24C504.946 203.24 502.938 213.063 502.127 214.684C501.618 215.659 500.751 216.4 499.708 216.752L499.853 209.845L504.946 203.24Z" fill="#263238"/>
<path d="M502.418 189.172C502.418 189.172 503.857 188.81 505.394 191.205C506.7 193.249 507.002 197.845 504.946 203.301L501.16 203.761L502.418 189.172Z" fill="#263238"/>
<path d="M503.809 191.168L508.454 191.253C508.486 190.953 508.455 190.649 508.364 190.361C508.273 190.074 508.123 189.808 507.924 189.581C507.726 189.353 507.482 189.17 507.209 189.041C506.936 188.913 506.639 188.842 506.337 188.834C505.702 188.843 505.093 189.086 504.626 189.517C504.16 189.948 503.869 190.536 503.809 191.168Z" fill="#263238"/>
<path d="M504.378 190.068L507.813 186.765C507.615 186.532 507.371 186.342 507.096 186.208C506.821 186.074 506.521 185.998 506.215 185.985C505.91 185.973 505.605 186.024 505.319 186.135C505.034 186.247 504.776 186.416 504.559 186.632C504.104 187.078 503.832 187.678 503.798 188.315C503.765 188.951 503.972 189.577 504.378 190.068Z" fill="#263238"/>
<path d="M500.023 203.7C500.785 204.172 501.861 202.66 502.805 201.632C503.748 200.604 506.676 199.66 508.2 202.999C509.724 206.337 507.123 209.639 504.946 210.728C501.039 212.664 499.805 209.845 499.805 209.845L499.478 225.401C493.987 233.868 481.528 233.602 486.015 224.99V220.26C484.169 220.567 482.295 220.664 480.427 220.55C477.379 220.066 475.467 217.562 474.536 214.127C473.06 208.611 472.492 204.16 473.75 193.31C475.129 181.431 488.41 181.298 495.523 186.052C502.636 190.806 500.023 203.7 500.023 203.7Z" fill="#FFA8A7"/>
<path d="M483.475 191.459C486.644 191.144 489.777 190.491 492.959 190.249C493.645 190.166 494.34 190.199 495.015 190.346C497.434 191.011 497.144 193.842 497.531 195.813C498.196 199.225 498.741 204.994 500.023 205.019C500.41 205.019 501.861 202.515 502.805 201.62C503.324 200.848 503.617 199.948 503.652 199.019C503.894 197.616 504.015 196.176 504.123 194.749C504.22 193.539 504.341 192.33 504.341 191.12C504.396 189.753 504.287 188.384 504.015 187.044C503.711 185.903 503.129 184.855 502.321 183.995L502.079 183.729C500.485 182.062 498.55 180.759 496.406 179.907C493.322 178.751 490.087 178.047 486.802 177.814C483.521 177.582 480.254 177.178 477.016 176.605C476.83 176.55 476.633 176.55 476.447 176.605C476.316 176.677 476.205 176.782 476.125 176.909C476.044 177.035 475.997 177.18 475.988 177.33C475.855 178.082 475.938 178.856 476.227 179.562C476.516 180.269 476.999 180.879 477.621 181.322C475.431 181.491 472.915 180.354 470.81 179.774C470.64 179.702 470.457 179.664 470.272 179.664C470.087 179.664 469.904 179.702 469.734 179.774C469.523 179.921 469.372 180.141 469.31 180.391C469.157 180.959 469.137 181.555 469.25 182.133C469.443 183.883 470.093 185.552 471.137 186.971C472.767 189.094 475.071 190.599 477.669 191.241C479.582 191.61 481.54 191.683 483.475 191.459Z" fill="#263238"/>
<path d="M486.027 220.26C486.027 220.26 492.826 218.833 495.196 217.514C496.609 216.742 497.755 215.561 498.487 214.127C498.13 215.568 497.493 216.924 496.612 218.119C494.882 220.441 486.027 222.135 486.027 222.135V220.26Z" fill="#F28F8F"/>
<path d="M487.66 201.922C487.647 202.295 487.782 202.659 488.036 202.933C488.29 203.207 488.642 203.37 489.015 203.386C489.311 203.41 489.608 203.344 489.867 203.197C490.125 203.05 490.333 202.828 490.463 202.561C490.593 202.294 490.639 201.993 490.596 201.699C490.552 201.405 490.421 201.131 490.219 200.912C490.017 200.694 489.754 200.542 489.464 200.476C489.174 200.41 488.871 200.433 488.594 200.542C488.318 200.651 488.081 200.841 487.914 201.088C487.747 201.334 487.659 201.625 487.66 201.922Z" fill="#263238"/>
<path d="M489.838 196.055L492.753 197.737C492.966 197.322 493.014 196.843 492.888 196.395C492.763 195.946 492.473 195.562 492.076 195.318C491.883 195.209 491.669 195.142 491.448 195.121C491.228 195.099 491.005 195.124 490.795 195.194C490.584 195.263 490.39 195.375 490.226 195.524C490.061 195.672 489.929 195.853 489.838 196.055Z" fill="#263238"/>
<path d="M486.632 211.732L483.524 212.942C483.586 213.155 483.692 213.353 483.834 213.524C483.976 213.694 484.152 213.834 484.351 213.934C484.549 214.034 484.766 214.092 484.988 214.104C485.21 214.117 485.432 214.083 485.64 214.006C486.064 213.824 486.402 213.488 486.586 213.065C486.77 212.643 486.787 212.166 486.632 211.732Z" fill="#F28F8F"/>
<path d="M475.153 197.301L477.814 195.172C477.695 194.986 477.538 194.828 477.353 194.707C477.169 194.586 476.961 194.505 476.743 194.469C476.525 194.434 476.302 194.445 476.088 194.501C475.875 194.558 475.676 194.659 475.504 194.797C475.148 195.099 474.916 195.521 474.851 195.982C474.787 196.444 474.894 196.914 475.153 197.301Z" fill="#263238"/>
<path d="M476.326 201.523C476.347 201.788 476.445 202.04 476.608 202.25C476.77 202.46 476.99 202.619 477.241 202.705C477.492 202.792 477.763 202.804 478.02 202.74C478.278 202.676 478.511 202.538 478.692 202.343C478.872 202.148 478.992 201.905 479.036 201.643C479.081 201.381 479.048 201.112 478.942 200.869C478.836 200.625 478.662 200.418 478.44 200.272C478.218 200.126 477.959 200.048 477.693 200.047C477.506 200.053 477.322 200.097 477.152 200.174C476.982 200.252 476.829 200.363 476.702 200.5C476.575 200.637 476.476 200.798 476.412 200.974C476.347 201.149 476.318 201.336 476.326 201.523Z" fill="#263238"/>
<path d="M483.62 200.386L483.463 208.986L478.576 207.873L483.62 200.386Z" fill="#F28F8F"/>
<path d="M367.569 272.419L375.154 268.04L378.153 264.399L370.581 268.778L367.569 272.419Z" fill="#FD7401"/>
<path opacity="0.4" d="M367.569 272.419L375.154 268.04L378.153 264.399L370.581 268.778L367.569 272.419Z" fill="black"/>
<path d="M388.193 284.322L395.777 279.943L402.103 274.342L394.531 278.709L388.193 284.322Z" fill="#FD7401"/>
<path opacity="0.4" d="M388.193 284.322L395.777 279.943L402.103 274.342L394.531 278.709L388.193 284.322Z" fill="black"/>
<path d="M452.618 299.43C454.411 301.834 455.496 304.691 455.751 307.68C453.965 305.271 452.881 302.416 452.618 299.43ZM470.242 299.66C467.69 282.302 458.363 265.137 447.259 258.714C441.925 255.629 436.989 255.521 433.034 257.831L425.897 261.944L425.498 262.186C425.18 262.361 424.873 262.554 424.578 262.766C423.992 263.17 423.442 263.623 422.933 264.121L422.691 264.351C422.474 264.569 422.244 264.823 422.038 265.065C421.833 265.306 421.518 265.681 421.276 266.008C420.763 266.684 420.298 267.395 419.885 268.137C419.667 268.512 419.462 268.911 419.268 269.347L356.936 233.372L349.364 237.739V242.578L350.005 242.94L350.61 243.291V244.259L349.4 244.973V247.779L358.557 267.133L367.605 272.371L370.617 268.742L378.601 273.52L383.185 281.37L388.241 284.285L394.568 278.673L402.333 283.161L404.946 293.938L417.998 301.486C418.643 304.229 419.451 306.932 420.417 309.579C420.502 309.845 420.611 310.123 420.72 310.426C425.05 321.796 431.933 331.533 439.699 336.021C440.629 336.573 441.605 337.047 442.614 337.436C443.148 337.649 443.693 337.83 444.247 337.981C444.731 338.11 445.215 338.219 445.699 338.307C447.226 338.586 448.792 338.586 450.319 338.307L450.948 338.15C451.249 338.09 451.544 338.005 451.831 337.896L452.509 337.63C452.748 337.543 452.979 337.434 453.198 337.303C453.422 337.207 453.64 337.098 453.851 336.977L454.166 336.783C454.223 336.765 454.276 336.736 454.323 336.699C456.053 335.707 460.311 333.239 461.472 332.586C467.23 329.247 470.956 320.804 470.956 308.865C470.946 305.783 470.707 302.706 470.242 299.66Z" fill="#FD7401"/>
<path d="M450.404 314.079C447.404 312.349 444.985 307.22 444.985 302.623C444.985 298.027 447.404 295.692 450.404 297.41C453.404 299.128 455.811 304.268 455.811 308.877C455.811 313.486 453.392 315.808 450.404 314.079ZM462.658 304.027C460.117 286.68 450.791 269.504 439.675 263.093C434.522 260.117 429.756 259.899 425.885 261.944L425.486 262.186C425.168 262.36 424.861 262.554 424.566 262.766C423.98 263.17 423.43 263.623 422.921 264.121L422.679 264.351C422.462 264.569 422.232 264.823 422.026 265.064C421.821 265.306 421.506 265.681 421.264 266.008C420.751 266.684 420.286 267.395 419.873 268.137C419.655 268.512 419.45 268.911 419.256 269.347C418.128 271.685 417.315 274.162 416.837 276.713L349.352 237.739V242.578L349.993 242.94L350.598 243.291V244.259L349.388 244.973V247.779L358.545 267.133L367.593 272.371L370.605 268.742L378.589 273.52L383.173 281.37L388.229 284.285L394.556 278.673L402.321 283.16L404.934 293.938L417.998 301.486C418.643 304.229 419.451 306.932 420.417 309.579C420.502 309.845 420.611 310.123 420.72 310.425C425.05 321.796 431.933 331.533 439.699 336.021C440.629 336.573 441.605 337.046 442.614 337.436C443.148 337.649 443.693 337.83 444.247 337.981C444.731 338.11 445.215 338.219 445.699 338.307C447.226 338.586 448.792 338.586 450.319 338.307L450.948 338.15C451.249 338.089 451.544 338.005 451.831 337.896L452.509 337.63C452.748 337.543 452.979 337.434 453.198 337.303C453.422 337.207 453.64 337.098 453.851 336.977L454.166 336.783C454.223 336.764 454.276 336.736 454.323 336.699C459.839 333.215 463.383 324.893 463.383 313.244C463.363 310.158 463.12 307.078 462.658 304.027Z" fill="#FD7401"/>
<path opacity="0.4" d="M455.811 308.865C455.811 313.474 453.392 315.808 450.404 314.078C447.417 312.349 444.985 307.232 444.985 302.623C444.985 298.015 447.404 295.68 450.404 297.41C451.268 297.936 452.02 298.626 452.618 299.442C452.878 302.429 453.963 305.285 455.751 307.692C455.795 308.081 455.815 308.473 455.811 308.865Z" fill="black"/>
<path opacity="0.4" d="M470.932 308.853C470.932 320.792 467.206 329.235 461.448 332.574C460.238 333.227 456.029 335.695 454.299 336.686C459.815 333.203 463.359 324.88 463.359 313.232C463.346 310.151 463.112 307.074 462.658 304.027C460.118 286.681 450.791 269.504 439.675 263.093C434.522 260.117 429.756 259.899 425.885 261.944L433.022 257.831C436.977 255.521 441.913 255.629 447.247 258.714C458.364 265.137 467.69 282.302 470.23 299.66C470.691 302.703 470.925 305.775 470.932 308.853Z" fill="white"/>
<path d="M463.359 313.207C463.359 324.856 459.815 333.178 454.299 336.662C456.029 335.67 460.287 333.203 461.448 332.549C467.206 329.211 470.932 320.768 470.932 308.829C470.932 308.393 470.932 307.946 470.932 307.498L463.359 311.877C463.347 312.349 463.359 312.784 463.359 313.207Z" fill="#FD7401"/>
<path opacity="0.1" d="M463.359 313.207C463.359 324.856 459.815 333.178 454.299 336.662C456.029 335.67 460.287 333.203 461.448 332.549C467.206 329.211 470.932 320.768 470.932 308.829C470.932 308.393 470.932 307.946 470.932 307.498L463.359 311.877C463.347 312.349 463.359 312.784 463.359 313.207Z" fill="black"/>
<path opacity="0.15" d="M417.127 281.661V284.116L349.364 244.997L350.61 244.271V243.255L417.127 281.661Z" fill="black"/>
<path opacity="0.15" d="M417.127 282.677V284.116L349.364 244.997L350.61 244.271V244.259L417.127 282.677Z" fill="black"/>
<path opacity="0.15" d="M446.594 332.562C444.025 332.495 441.521 331.748 439.336 330.396C428.292 324.022 419.305 305.055 419.305 288.12C419.305 278.237 422.292 270.859 427.506 267.847C431.135 265.742 435.429 266.008 439.941 268.609C450.973 274.984 459.96 294.011 459.96 310.946C459.96 320.816 456.972 328.207 451.759 331.207C450.186 332.105 448.405 332.572 446.594 332.562ZM432.743 267.665C431.131 267.656 429.546 268.074 428.147 268.875C423.393 271.621 420.55 278.818 420.55 288.108C420.55 304.656 429.26 323.187 439.977 329.332C444.078 331.751 447.961 331.969 451.19 330.106C455.944 327.36 458.787 320.175 458.787 310.885C458.787 294.325 450.077 275.806 439.372 269.649C437.371 268.432 435.085 267.764 432.743 267.714V267.665Z" fill="black"/>
<path opacity="0.4" d="M419.208 269.322C418.08 271.661 417.266 274.138 416.788 276.689L349.303 237.715L356.876 233.348L419.208 269.322Z" fill="white"/>
<path d="M506.918 273.109C510.45 266.419 514.49 251.396 516.498 243.811C519.353 233.046 514.732 226.272 509.482 225.994C506.204 226.502 495.402 265.778 495.402 265.778C494.193 266.734 477.778 275.068 472.504 277.161C471.561 277.518 470.52 277.518 469.577 277.161C467.049 276.242 465.319 276.411 462.839 276.169C460.892 275.975 459.912 275.286 459.658 275.697C459.427 276.208 459.397 276.786 459.575 277.318C459.752 277.849 460.123 278.294 460.613 278.564C461.681 279.186 462.818 279.681 464 280.04C461.88 280.683 459.671 280.981 457.456 280.923C452.376 280.814 450.549 283.015 454.493 288.181C456.912 291.398 460.916 292.414 469.855 289.33C472.419 288.435 475.903 286.705 479.157 285.531C485.858 283.112 487.624 282.822 492.729 281.092C500.168 278.576 505.345 276.084 506.918 273.109Z" fill="#FFA8A7"/>
<path d="M507.51 224.978C510.595 225.401 513.558 226.09 515.385 228.606C517.212 231.122 518.675 234.655 516.885 244.271C515.514 251.034 513.679 257.695 511.393 264.206C511.393 264.206 504.208 267.278 496.575 259.488L501.825 239.191C501.825 239.191 502.672 225.994 507.51 224.978Z" fill="#455A64"/>
</svg>
